<?xml version="1.0" encoding="UTF-8"?>
<svg version="1.1" xmlns="http://www.w3.org/2000/svg" width="401" height="188">
<path d="M0 0 C2.71001505 -0.00322868 5.42000308 -0.01240921 8.13000488 -0.02124023 C14.69916031 -0.03893773 21.26813194 -0.03522509 27.83729429 -0.02358967 C33.18011324 -0.0145216 38.52288103 -0.01334585 43.86570549 -0.01768494 C44.6288303 -0.01829787 45.3919551 -0.0189108 46.17820491 -0.01954231 C47.72891794 -0.02082133 49.27963095 -0.02211818 50.83034395 -0.02343267 C65.33840115 -0.03481257 79.84635691 -0.02176518 94.35439747 -0.00023121 C106.77977274 0.01764104 119.20499851 0.01452962 131.63037109 -0.00390625 C146.09137728 -0.02535268 160.5522948 -0.03371795 175.01331466 -0.0214572 C176.55771918 -0.02018312 178.1021237 -0.01892563 179.64652824 -0.01768494 C180.4062277 -0.01706783 181.16592716 -0.01645073 181.94864782 -0.01581493 C187.28024078 -0.01237359 192.61177709 -0.01816393 197.94336128 -0.02760315 C204.44761511 -0.03886642 210.95167605 -0.03569264 217.45590801 -0.01448017 C220.76910892 -0.00402779 224.08172587 -0.0019307 227.39496422 -0.01307678 C252.86254409 -0.09082833 252.86254409 -0.09082833 263.18920898 4.51757812 C264.1018731 4.90596611 265.01453722 5.2943541 265.95485783 5.69451141 C281.25543067 12.47384438 292.04937737 25.48432528 298.51733398 40.62695312 C303.43912926 55.11505471 303.2937452 72.44712253 297.18920898 86.51757812 C296.82698242 87.39285156 296.46475586 88.268125 296.09155273 89.16992188 C289.20474567 104.32089742 276.54890355 115.31826946 261.36108398 121.70727539 C249.6711221 125.5505377 237.98479965 124.96210204 225.81420898 124.76757812 C223.61370449 124.74747331 221.41318216 124.72922962 219.21264648 124.71289062 C213.87110561 124.66923254 208.53024272 124.60263964 203.18920898 124.51757812 C203.04298096 125.78214844 202.89675293 127.04671875 202.74609375 128.34960938 C201.7890906 136.62570935 197.44148078 143.12998826 191.44702148 148.75976562 C185.43320249 153.44180464 178.60714046 156.63009258 170.96043396 156.66474915 C169.87692154 156.67190445 168.79340912 156.67905975 167.67706299 156.68643188 C166.48796326 156.68912079 165.29886353 156.69180969 164.07373047 156.69458008 C162.82139114 156.70115128 161.56905182 156.70772247 160.27876282 156.7144928 C156.12260704 156.73424787 151.96648989 156.7458976 147.81030273 156.75585938 C146.37696883 156.75990817 144.94363511 156.76402513 143.51030159 156.76820946 C136.77202282 156.78726248 130.03375497 156.80149026 123.29545444 156.80982143 C115.53295593 156.81957851 107.77074373 156.84585723 100.00834602 156.88632232 C93.99968402 156.91656296 87.99110368 156.93129801 81.9823671 156.93460244 C78.39821002 156.93694495 74.81435875 156.94579932 71.23028374 156.97106361 C67.22349171 156.99885019 63.21733172 156.99448907 59.21044922 156.98754883 C58.0355191 157.00035889 56.86058899 157.01316895 55.65005493 157.02636719 C44.24547751 156.95458725 36.61322809 153.75194254 28.38842773 145.88867188 C22.64322557 139.69446634 19.03037436 133.10908729 19.18920898 124.51757812 C18.64178543 124.52646057 18.09436188 124.53534302 17.53034973 124.54449463 C11.77034071 124.63382079 6.01053218 124.69366099 0.25 124.73730469 C-1.89233407 124.75727082 -4.0346147 124.78445351 -6.17675781 124.81933594 C-29.01679964 125.18162258 -29.01679964 125.18162258 -39.81079102 120.51757812 C-40.72715332 120.12884521 -41.64351562 119.7401123 -42.58764648 119.33959961 C-57.88093217 112.53862559 -68.66806761 99.55760116 -75.13891602 84.40820312 C-80.06071129 69.92010154 -79.91532723 52.58803372 -73.81079102 38.51757812 C-73.26745117 37.20466797 -73.26745117 37.20466797 -72.71313477 35.86523438 C-65.81331326 20.68562705 -53.20707469 9.85258508 -38.06829929 3.3372879 C-25.68502711 -0.79449417 -12.90400646 -0.04344696 0 0 Z " fill="#E8C63D" transform="translate(88.810791015625,15.482421875)"/>
<path d="M0 0 C10.40686517 8.84495792 15.07693154 18.42021531 16.25390625 31.91015625 C16.7202801 43.56950261 12.51295324 53.51352922 5.03125 62.31640625 C-4.38529846 72.3795135 -14.7938876 75.82006338 -28.3125 76.4375 C-40.80040152 76.17305032 -49.54458467 70.80900543 -58 62 C-58.87785156 61.18595703 -58.87785156 61.18595703 -59.7734375 60.35546875 C-66.85929177 53.25163008 -69.47662331 42.72682846 -69.625 32.9375 C-69.41154444 20.77199485 -64.58189163 10.52198313 -56 2 C-39.65607836 -11.74552393 -17.17614122 -13.33276704 0 0 Z " fill="#3C3C3B" transform="translate(353,45)"/>
<path d="M0 0 C60.72 0 121.44 0 184 0 C182.60564074 11.1548741 178.98794175 19.0024675 170 26 C164.11428823 29.51046904 158.68767184 32.11582416 151.77122498 32.14717102 C150.68771255 32.15432632 149.60420013 32.16148163 148.487854 32.16885376 C147.29875427 32.17154266 146.10965454 32.17423157 144.88452148 32.17700195 C143.63218216 32.18357315 142.37984283 32.19014435 141.08955383 32.19691467 C136.93339805 32.21666974 132.77728091 32.22831947 128.62109375 32.23828125 C127.18775984 32.24233004 125.75442612 32.246447 124.32109261 32.25063133 C117.58281383 32.26968436 110.84454599 32.28391213 104.10624546 32.2922433 C96.34374694 32.30200039 88.58153475 32.3282791 80.81913704 32.36874419 C74.81047503 32.39898483 68.80189469 32.41371989 62.79315811 32.41702431 C59.20900104 32.41936682 55.62514976 32.42822119 52.04107475 32.45348549 C48.03428272 32.48127206 44.02812273 32.47691095 40.02124023 32.4699707 C38.84631012 32.48278076 37.67138 32.49559082 36.46084595 32.50878906 C25.05626852 32.43700913 17.4240191 29.23436442 9.19921875 21.37109375 C3.36480005 15.08069917 0 8.70275554 0 0 Z " fill="#3D3C3B" transform="translate(108,140)"/>
<path d="M0 0 C3.320625 -0.12375 6.64125 -0.2475 10.0625 -0.375 C11.09511963 -0.42962402 12.12773926 -0.48424805 13.19165039 -0.54052734 C18.00771741 -0.62693503 21.27457646 -0.36321249 25.13671875 2.6796875 C27.23144112 4.79659774 27.96408053 5.88375153 28.859375 8.78125 C28.59844327 15.26726737 27.82400454 18.5377958 23 23 C26.465 29.435 26.465 29.435 30 36 C26.7 36 23.4 36 20 36 C19.43732422 34.82630859 19.43732422 34.82630859 18.86328125 33.62890625 C18.35152344 32.61699219 17.83976562 31.60507813 17.3125 30.5625 C16.56419922 29.04849609 16.56419922 29.04849609 15.80078125 27.50390625 C14.00785816 24.41087373 14.00785816 24.41087373 9 24 C9 27.96 9 31.92 9 36 C6.03 36 3.06 36 0 36 C0 24.12 0 12.24 0 0 Z " fill="#3F3E3B" transform="translate(223,62)"/>
<path d="M0 0 C2.66848187 0.79139291 4.857877 1.79291248 7.29296875 3.13598633 C8.58847656 3.84851563 8.58847656 3.84851563 9.91015625 4.57543945 C11.24433594 5.32277344 11.24433594 5.32277344 12.60546875 6.08520508 C13.93964844 6.81513672 13.93964844 6.81513672 15.30078125 7.55981445 C24.76407218 12.80699741 24.76407218 12.80699741 27.60546875 15.77270508 C28.16796875 18.31958008 28.16796875 18.31958008 27.60546875 20.77270508 C24.78312072 23.73074292 21.08511239 25.65828047 17.60546875 27.77270508 C16.96287109 28.17166992 16.32027344 28.57063477 15.65820312 28.98168945 C13.57055322 30.26897499 11.46701792 31.52506002 9.35546875 32.77270508 C8.68257813 33.18294922 8.0096875 33.59319336 7.31640625 34.01586914 C3.9140628 35.96414783 2.19589427 36.80505716 -1.81640625 36.58520508 C-4.39453125 35.77270508 -4.39453125 35.77270508 -5.39453125 34.77270508 C-5.5201229 32.3478347 -5.58314105 29.95293635 -5.59765625 27.52661133 C-5.60335632 26.80030014 -5.6090564 26.07398895 -5.6149292 25.32566833 C-5.62439125 23.78646304 -5.63091795 22.24723738 -5.63476562 20.70800781 C-5.64447712 18.34835647 -5.67548982 15.98957384 -5.70703125 13.63012695 C-5.71356045 12.1372936 -5.71881125 10.644454 -5.72265625 9.15161133 C-5.73500305 8.44323624 -5.74734985 7.73486115 -5.7600708 7.00502014 C-5.75097656 5.01318359 -5.75097656 5.01318359 -5.39453125 1.77270508 C-2.39453125 -0.22729492 -2.39453125 -0.22729492 0 0 Z " fill="#E6C43D" transform="translate(319.39453125,60.227294921875)"/>
<path d="M0 0 C1.65322266 0.01740234 1.65322266 0.01740234 3.33984375 0.03515625 C4.44457031 0.04417969 5.54929688 0.05320313 6.6875 0.0625 C7.54214844 0.07410156 8.39679688 0.08570313 9.27734375 0.09765625 C10.72216173 4.03250861 12.15681602 7.97099629 13.58984375 11.91015625 C13.99396484 13.01037109 14.39808594 14.11058594 14.81445312 15.24414062 C17.31348738 22.13172285 19.44582074 29.00272731 21.27734375 36.09765625 C17.97734375 36.09765625 14.67734375 36.09765625 11.27734375 36.09765625 C10.61734375 33.78765625 9.95734375 31.47765625 9.27734375 29.09765625 C5.31734375 29.09765625 1.35734375 29.09765625 -2.72265625 29.09765625 C-3.71265625 32.56265625 -3.71265625 32.56265625 -4.72265625 36.09765625 C-8.02265625 36.09765625 -11.32265625 36.09765625 -14.72265625 36.09765625 C-13.20600967 28.34038193 -10.77986623 21.0470685 -8.16015625 13.59765625 C-7.74830078 12.4065625 -7.33644531 11.21546875 -6.91210938 9.98828125 C-3.47218605 0.12454039 -3.47218605 0.12454039 0 0 Z " fill="#403F3B" transform="translate(133.72265625,61.90234375)"/>
<path d="M0 0 C3.17625 -0.0825 6.3525 -0.165 9.625 -0.25 C10.6145166 -0.28641602 11.6040332 -0.32283203 12.62353516 -0.36035156 C18.42835172 -0.43310245 21.56166724 0.18758596 26 4 C28.37979031 7.02882403 28.3657014 10.25070271 28.24609375 14.04296875 C27.70380668 18.3554421 25.56852228 20.48694331 22.4375 23.3125 C17.69446849 25.64089729 14.24911196 25.28373578 9 25 C9 28.63 9 32.26 9 36 C6.03 36 3.06 36 0 36 C0 24.12 0 12.24 0 0 Z " fill="#3F3E3B" transform="translate(59,62)"/>
<path d="M0 0 C8.58 0 17.16 0 26 0 C26 2.64 26 5.28 26 8 C20.39 8 14.78 8 9 8 C9 10.31 9 12.62 9 15 C14.28 15 19.56 15 25 15 C25 17.31 25 19.62 25 22 C19.72 22 14.44 22 9 22 C9 24.64 9 27.28 9 30 C14.61 30 20.22 30 26 30 C26 32.31 26 34.62 26 37 C17.42 37 8.84 37 0 37 C0 24.79 0 12.58 0 0 Z " fill="#46433B" transform="translate(192,61)"/>
<path d="M0 0 C3.3 0 6.6 0 10 0 C11.00484204 1.95585325 12.00373805 3.91476237 13 5.875 C13.556875 6.96554688 14.11375 8.05609375 14.6875 9.1796875 C16 12 16 12 16 14 C16.66 14 17.32 14 18 14 C18.2475 13.175 18.495 12.35 18.75 11.5 C20.19543589 7.45277952 22.02628065 3.81585741 24 0 C27.3 0 30.6 0 34 0 C32.23922965 4.81084795 29.84414696 9.24086367 27.4375 13.75 C27.02564453 14.52988281 26.61378906 15.30976562 26.18945312 16.11328125 C23.13188486 21.86811514 23.13188486 21.86811514 22 23 C21.76518307 25.18292774 21.58636677 27.37203174 21.4375 29.5625 C21.35371094 30.76003906 21.26992187 31.95757812 21.18359375 33.19140625 C21.09271484 34.58166016 21.09271484 34.58166016 21 36 C18.36 36 15.72 36 13 36 C13.06703125 35.30519531 13.1340625 34.61039063 13.203125 33.89453125 C13.38175883 22.1493568 7.17124061 13.59192048 1.08569336 3.94848633 C0 2 0 2 0 0 Z " fill="#3E3D3B" transform="translate(154,62)"/>
<path d="M0 0 C2.97 0 5.94 0 9 0 C9 9.9 9 19.8 9 30 C13.95 30 18.9 30 24 30 C24 32.31 24 34.62 24 37 C16.08 37 8.16 37 0 37 C0 24.79 0 12.58 0 0 Z " fill="#42413B" transform="translate(91,61)"/>
<path d="M0 0 C1.32 0 2.64 0 4 0 C4 4.95 4 9.9 4 15 C3.01 15 2.02 15 1 15 C0.67 12.69 0.34 10.38 0 8 C-0.99 10.31 -1.98 12.62 -3 15 C-3.99 14.67 -4.98 14.34 -6 14 C-7.1875 10.9375 -7.1875 10.9375 -8 8 C-8.33 10.31 -8.66 12.62 -9 15 C-9.99 15 -10.98 15 -12 15 C-12 10.38 -12 5.76 -12 1 C-10.35 1 -8.7 1 -7 1 C-6.34 3.31 -5.68 5.62 -5 8 C-4.34 8 -3.68 8 -3 8 C-2.690625 6.865625 -2.38125 5.73125 -2.0625 4.5625 C-1 1 -1 1 0 0 Z " fill="#E1C03D" transform="translate(220,147)"/>
<path d="M0 0 C7 0 7 0 9.4375 1.1875 C11 3 11 3 11.3125 5.5 C11 8 11 8 10 11 C10.38932856 13.14255793 10.38932856 13.14255793 11 15 C9.68 15 8.36 15 7 15 C6.71125 14.360625 6.4225 13.72125 6.125 13.0625 C5.17176549 10.84793921 5.17176549 10.84793921 3 10 C3 11.65 3 13.3 3 15 C2.01 15 1.02 15 0 15 C0 10.05 0 5.1 0 0 Z " fill="#CEB13D" transform="translate(167,147)"/>
<path d="M0 0 C4 1 4 1 6.25 4.0625 C7.11625 5.5165625 7.11625 5.5165625 8 7 C8.33 5.02 8.66 3.04 9 1 C9.99 1 10.98 1 12 1 C12 5.62 12 10.24 12 15 C8 14 8 14 6.25 11.4375 C5.8375 10.633125 5.425 9.82875 5 9 C4.67 10.98 4.34 12.96 4 15 C2.68 15 1.36 15 0 15 C0 10.05 0 5.1 0 0 Z " fill="#DDBD3D" transform="translate(232,147)"/>
<path d="M0 0 C1.98 0 3.96 0 6 0 C6.67260351 1.76858691 7.33788395 3.53996016 8 5.3125 C8.37125 6.29863281 8.7425 7.28476563 9.125 8.30078125 C10 11 10 11 10 14 C8.68 14 7.36 14 6 14 C6 13.01 6 12.02 6 11 C4.02 11 2.04 11 0 11 C0 11.99 0 12.98 0 14 C-1.32 14 -2.64 14 -4 14 C-3.00956295 9.16371695 -2.04301154 4.52381127 0 0 Z " fill="#D1B43D" transform="translate(196,148)"/>
<path d="M0 0 C1.875 1.375 1.875 1.375 3 3 C3 3.66 3 4.32 3 5 C1.865625 4.814375 0.73125 4.62875 -0.4375 4.4375 C-1.613125 4.293125 -2.78875 4.14875 -4 4 C-5.41577477 5.18424326 -5.41577477 5.18424326 -5.0625 8.5625 C-5.041875 9.696875 -5.02125 10.83125 -5 12 C-3.35 12 -1.7 12 0 12 C0 11.34 0 10.68 0 10 C-0.66 10 -1.32 10 -2 10 C-2 9.01 -2 8.02 -2 7 C-0.02 7 1.96 7 4 7 C3.6875 9.875 3.6875 9.875 3 13 C-0.46923881 15.31282587 -1.92205575 15.42478586 -6 15 C-8.1541839 13.397004 -8.90646291 12.5062007 -9.3984375 9.84375 C-9.39070312 9.0703125 -9.38296875 8.296875 -9.375 7.5 C-9.38273438 6.7265625 -9.39046875 5.953125 -9.3984375 5.15625 C-8.41808061 -0.1492108 -4.82244972 -0.60280621 0 0 Z " fill="#DDBD3D" transform="translate(256,147)"/>
<path d="M0 0 C3.3 0 6.6 0 10 0 C10 0.99 10 1.98 10 3 C8.02 3 6.04 3 4 3 C4 3.99 4 4.98 4 6 C5.98 6 7.96 6 10 6 C10 6.99 10 7.98 10 9 C8.02 9 6.04 9 4 9 C4 9.99 4 10.98 4 12 C5.98 12 7.96 12 10 12 C10 12.99 10 13.98 10 15 C6.7 15 3.4 15 0 15 C0 10.05 0 5.1 0 0 Z " fill="#D6B83D" transform="translate(180,147)"/>
<path d="M0 0 C3.625 0.375 3.625 0.375 7 1 C7.33 2.32 7.66 3.64 8 5 C5.61435923 4.42415568 3.33317216 3.77772405 1 3 C1 3.99 1 4.98 1 6 C1.969375 6.144375 2.93875 6.28875 3.9375 6.4375 C7 7 7 7 8 8 C8.04080783 9.99958364 8.04254356 12.00045254 8 14 C4.98675805 15.50662097 2.31713623 15.17770373 -1 15 C-1.66 14.34 -2.32 13.68 -3 13 C-3 12.01 -3 11.02 -3 10 C-0.33333333 10.66666667 2.33333333 11.33333333 5 12 C3.37633534 8.75267068 0.24612161 8.29844864 -3 7 C-2.25 2.25 -2.25 2.25 0 0 Z " fill="#DABB3D" transform="translate(143,147)"/>
<path d="M0 0 C7.38804781 -0.36334661 7.38804781 -0.36334661 10 1.1875 C11.36703913 3.66525842 11.41826612 5.21155919 11 8 C10 9.8125 10 9.8125 8 11 C5.28125957 11.24667073 2.74116148 11.13481122 0 11 C0 7.37 0 3.74 0 0 Z " fill="#D9BA3D" transform="translate(67,69)"/>
<path d="M0 0 C6.0546875 -0.1953125 6.0546875 -0.1953125 8 0 C10 2 10 2 10.3125 5 C10.1578125 6.485 10.1578125 6.485 10 8 C6.3558226 10.4294516 4.28758728 10.16179575 0 10 C0 6.7 0 3.4 0 0 Z " fill="#E2C13D" transform="translate(232,69)"/>
<path d="M0 0 C3.96 0 7.92 0 12 0 C12 0.66 12 1.32 12 2 C10.68 2 9.36 2 8 2 C8 5.96 8 9.92 8 14 C6.68 14 5.36 14 4 14 C4 10.04 4 6.08 4 2 C2.68 2 1.36 2 0 2 C0 1.34 0 0.68 0 0 Z " fill="#DABB3D" transform="translate(153,148)"/>
<path d="M0 0 C3.57011026 3.732388 4.10913442 8.0949989 5 13 C2.36 13 -0.28 13 -3 13 C-2.68817931 11.58318366 -2.37551263 10.16655349 -2.0625 8.75 C-1.88847656 7.96109375 -1.71445313 7.1721875 -1.53515625 6.359375 C-1.052444 4.23121297 -0.53836822 2.11467158 0 0 Z " fill="#D5B73D" transform="translate(136,71)"/>
<path d="M0 0 C1.32 0 2.64 0 4 0 C4 4.95 4 9.9 4 15 C2.68 15 1.36 15 0 15 C0 10.05 0 5.1 0 0 Z " fill="#D3B53D" transform="translate(226,147)"/>
<path d="M0 0 C2.72869407 0.03287583 5.2966618 0.56397771 8 1 C7.67 1.99 7.34 2.98 7 4 C5.35 4 3.7 4 2 4 C2 4.99 2 5.98 2 7 C2.66 7 3.32 7 4 7 C4 7.66 4 8.32 4 9 C2.35 9 0.7 9 -1 9 C-1.625 5.625 -1.625 5.625 -2 2 C-1.34 1.34 -0.68 0.68 0 0 Z " fill="#504C3B" transform="translate(252,150)"/>
</svg>
